<mxfile host="app.diagrams.net" modified="2023-03-20T04:39:41.660Z" agent="5.0 (Windows NT 10.0; Win64; x64) AppleWebKit/537.36 (KHTML, like Gecko) Chrome/110.0.0.0 Safari/537.36" etag="UokRrHVT74AU6zKbQN-D" version="21.0.8" type="github" pages="2">
  <diagram id="CX-kAmB0zcXmTXvZoOpx" name="组件图">
    <mxGraphModel dx="2257" dy="1891" grid="1" gridSize="10" guides="1" tooltips="1" connect="1" arrows="1" fold="1" page="1" pageScale="1" pageWidth="827" pageHeight="1169" math="0" shadow="0">
      <root>
        <mxCell id="P0ja4m1GKOgg7Rop0Mvm-0" />
        <mxCell id="P0ja4m1GKOgg7Rop0Mvm-1" parent="P0ja4m1GKOgg7Rop0Mvm-0" />
        <mxCell id="P0ja4m1GKOgg7Rop0Mvm-221" style="edgeStyle=orthogonalEdgeStyle;rounded=0;orthogonalLoop=1;jettySize=auto;html=1;entryX=0;entryY=0.5;entryDx=0;entryDy=0;entryPerimeter=0;endArrow=none;endFill=0;fontSize=16;startArrow=none;fontFamily=PingFang SC;" parent="P0ja4m1GKOgg7Rop0Mvm-1" source="P0ja4m1GKOgg7Rop0Mvm-274" target="P0ja4m1GKOgg7Rop0Mvm-197" edge="1">
          <mxGeometry relative="1" as="geometry">
            <mxPoint x="369" y="350" as="sourcePoint" />
          </mxGeometry>
        </mxCell>
        <mxCell id="P0ja4m1GKOgg7Rop0Mvm-24" value="«Component»&lt;br style=&quot;font-size: 16px;&quot;&gt;&lt;b style=&quot;font-size: 16px;&quot;&gt;Visualization&lt;/b&gt;" style="align=center;overflow=fill;html=1;fontFamily=PingFang SC;fontSize=16;fontColor=#000000;strokeColor=#000000;fillColor=#ffffff;" parent="P0ja4m1GKOgg7Rop0Mvm-1" vertex="1">
          <mxGeometry x="473" y="-71.5" width="1000.04347826087" height="721" as="geometry" />
        </mxCell>
        <mxCell id="P0ja4m1GKOgg7Rop0Mvm-25" value="" style="shape=component;jettyWidth=8;jettyHeight=4;fontSize=16;fontFamily=PingFang SC;" parent="P0ja4m1GKOgg7Rop0Mvm-24" vertex="1">
          <mxGeometry x="1" width="20" height="20" relative="1" as="geometry">
            <mxPoint x="-27" y="7" as="offset" />
          </mxGeometry>
        </mxCell>
        <mxCell id="uTpkXc_pbzOPR-OZeIzC-3" style="edgeStyle=orthogonalEdgeStyle;rounded=0;orthogonalLoop=1;jettySize=auto;html=1;endArrow=none;endFill=0;fontSize=16;fontFamily=PingFang SC;" parent="P0ja4m1GKOgg7Rop0Mvm-24" source="P0ja4m1GKOgg7Rop0Mvm-37" target="uTpkXc_pbzOPR-OZeIzC-1" edge="1">
          <mxGeometry relative="1" as="geometry" />
        </mxCell>
        <mxCell id="P0ja4m1GKOgg7Rop0Mvm-37" value="" style="strokeColor=inherit;fillColor=inherit;gradientColor=inherit;shape=rect;points=[[0,0.5,0]];html=1;resizable=1;align=right;verticalAlign=bottom;labelPosition=left;verticalLabelPosition=top;labelBackgroundColor=none;fontSize=16;paart=1;fontFamily=PingFang SC;" parent="P0ja4m1GKOgg7Rop0Mvm-24" vertex="1">
          <mxGeometry x="-8.695652173913047" y="271.50076923076927" width="20" height="20" as="geometry" />
        </mxCell>
        <mxCell id="P0ja4m1GKOgg7Rop0Mvm-185" style="edgeStyle=orthogonalEdgeStyle;rounded=0;orthogonalLoop=1;jettySize=auto;html=1;entryX=0;entryY=0.5;entryDx=0;entryDy=0;entryPerimeter=0;endArrow=none;endFill=0;exitX=1;exitY=0.5;exitDx=0;exitDy=0;fontSize=16;fontFamily=PingFang SC;" parent="P0ja4m1GKOgg7Rop0Mvm-24" source="uTpkXc_pbzOPR-OZeIzC-1" target="P0ja4m1GKOgg7Rop0Mvm-180" edge="1">
          <mxGeometry relative="1" as="geometry">
            <mxPoint x="11.304347826086996" y="301" as="sourcePoint" />
          </mxGeometry>
        </mxCell>
        <mxCell id="P0ja4m1GKOgg7Rop0Mvm-192" style="edgeStyle=orthogonalEdgeStyle;rounded=0;orthogonalLoop=1;jettySize=auto;html=1;endArrow=none;endFill=0;fontSize=16;fontFamily=PingFang SC;" parent="P0ja4m1GKOgg7Rop0Mvm-24" source="P0ja4m1GKOgg7Rop0Mvm-51" target="P0ja4m1GKOgg7Rop0Mvm-146" edge="1">
          <mxGeometry relative="1" as="geometry" />
        </mxCell>
        <mxCell id="P0ja4m1GKOgg7Rop0Mvm-51" value="«Component»&lt;br style=&quot;font-size: 16px;&quot;&gt;&lt;b style=&quot;font-size: 16px;&quot;&gt;AppEvent&lt;/b&gt;" style="html=1;fontSize=16;fontFamily=PingFang SC;" parent="P0ja4m1GKOgg7Rop0Mvm-24" vertex="1">
          <mxGeometry x="365" y="172" width="140" height="60" as="geometry" />
        </mxCell>
        <mxCell id="P0ja4m1GKOgg7Rop0Mvm-52" value="" style="shape=component;jettyWidth=8;jettyHeight=4;fontSize=16;fontFamily=PingFang SC;" parent="P0ja4m1GKOgg7Rop0Mvm-51" vertex="1">
          <mxGeometry x="1" width="20" height="20" relative="1" as="geometry">
            <mxPoint x="-26" y="5" as="offset" />
          </mxGeometry>
        </mxCell>
        <mxCell id="P0ja4m1GKOgg7Rop0Mvm-154" style="edgeStyle=orthogonalEdgeStyle;rounded=0;orthogonalLoop=1;jettySize=auto;html=1;endArrow=none;endFill=0;fontSize=16;fontFamily=PingFang SC;" parent="P0ja4m1GKOgg7Rop0Mvm-24" source="P0ja4m1GKOgg7Rop0Mvm-62" target="P0ja4m1GKOgg7Rop0Mvm-152" edge="1">
          <mxGeometry relative="1" as="geometry" />
        </mxCell>
        <mxCell id="fyW6FbxkXhklxL_48_FK-2" style="edgeStyle=orthogonalEdgeStyle;rounded=0;orthogonalLoop=1;jettySize=auto;html=1;entryX=0;entryY=0.5;entryDx=0;entryDy=0;endArrow=none;endFill=0;fontSize=16;fontFamily=PingFang SC;" parent="P0ja4m1GKOgg7Rop0Mvm-24" source="fyW6FbxkXhklxL_48_FK-3" target="P0ja4m1GKOgg7Rop0Mvm-146" edge="1">
          <mxGeometry relative="1" as="geometry" />
        </mxCell>
        <mxCell id="P0ja4m1GKOgg7Rop0Mvm-62" value="«Component»&lt;br style=&quot;font-size: 16px;&quot;&gt;&lt;b style=&quot;font-size: 16px;&quot;&gt;AppRouter&lt;/b&gt;" style="html=1;fontSize=16;fontFamily=PingFang SC;" parent="P0ja4m1GKOgg7Rop0Mvm-24" vertex="1">
          <mxGeometry x="365" y="389.99576923076916" width="140" height="60" as="geometry" />
        </mxCell>
        <mxCell id="P0ja4m1GKOgg7Rop0Mvm-63" value="" style="shape=component;jettyWidth=8;jettyHeight=4;fontSize=16;fontFamily=PingFang SC;" parent="P0ja4m1GKOgg7Rop0Mvm-62" vertex="1">
          <mxGeometry x="1" width="20" height="20" relative="1" as="geometry">
            <mxPoint x="-27" y="5.550769230769184" as="offset" />
          </mxGeometry>
        </mxCell>
        <mxCell id="P0ja4m1GKOgg7Rop0Mvm-156" style="edgeStyle=orthogonalEdgeStyle;rounded=0;orthogonalLoop=1;jettySize=auto;html=1;entryX=0;entryY=0.5;entryDx=0;entryDy=0;entryPerimeter=0;endArrow=none;endFill=0;fontSize=16;fontFamily=PingFang SC;" parent="P0ja4m1GKOgg7Rop0Mvm-24" source="P0ja4m1GKOgg7Rop0Mvm-67" target="P0ja4m1GKOgg7Rop0Mvm-155" edge="1">
          <mxGeometry relative="1" as="geometry" />
        </mxCell>
        <mxCell id="P0ja4m1GKOgg7Rop0Mvm-67" value="«Component»&lt;br style=&quot;font-size: 16px;&quot;&gt;&lt;b style=&quot;font-size: 16px;&quot;&gt;AppVuex&lt;/b&gt;" style="html=1;fontSize=16;fontFamily=PingFang SC;" parent="P0ja4m1GKOgg7Rop0Mvm-24" vertex="1">
          <mxGeometry x="367.38" y="631.9949999999999" width="140" height="60" as="geometry" />
        </mxCell>
        <mxCell id="P0ja4m1GKOgg7Rop0Mvm-68" value="" style="shape=component;jettyWidth=8;jettyHeight=4;fontSize=16;fontFamily=PingFang SC;" parent="P0ja4m1GKOgg7Rop0Mvm-67" vertex="1">
          <mxGeometry x="1" width="20" height="20" relative="1" as="geometry">
            <mxPoint x="-27" y="10.169999999999892" as="offset" />
          </mxGeometry>
        </mxCell>
        <mxCell id="P0ja4m1GKOgg7Rop0Mvm-160" style="edgeStyle=orthogonalEdgeStyle;rounded=0;orthogonalLoop=1;jettySize=auto;html=1;entryX=0;entryY=0.5;entryDx=0;entryDy=0;entryPerimeter=0;endArrow=none;endFill=0;fontSize=16;fontFamily=PingFang SC;" parent="P0ja4m1GKOgg7Rop0Mvm-24" source="P0ja4m1GKOgg7Rop0Mvm-72" target="P0ja4m1GKOgg7Rop0Mvm-158" edge="1">
          <mxGeometry relative="1" as="geometry" />
        </mxCell>
        <mxCell id="P0ja4m1GKOgg7Rop0Mvm-72" value="«Component»&lt;br style=&quot;font-size: 16px;&quot;&gt;&lt;b style=&quot;font-size: 16px;&quot;&gt;AppLang&lt;/b&gt;" style="html=1;fontSize=16;fontFamily=PingFang SC;" parent="P0ja4m1GKOgg7Rop0Mvm-24" vertex="1">
          <mxGeometry x="365" y="270.985" width="140" height="60" as="geometry" />
        </mxCell>
        <mxCell id="P0ja4m1GKOgg7Rop0Mvm-73" value="" style="shape=component;jettyWidth=8;jettyHeight=4;fontSize=16;fontFamily=PingFang SC;" parent="P0ja4m1GKOgg7Rop0Mvm-72" vertex="1">
          <mxGeometry x="1" width="20" height="20" relative="1" as="geometry">
            <mxPoint x="-27" y="5" as="offset" />
          </mxGeometry>
        </mxCell>
        <mxCell id="P0ja4m1GKOgg7Rop0Mvm-183" style="edgeStyle=orthogonalEdgeStyle;rounded=0;orthogonalLoop=1;jettySize=auto;html=1;entryX=0;entryY=0.5;entryDx=0;entryDy=0;entryPerimeter=0;endArrow=none;endFill=0;exitX=1;exitY=0.5;exitDx=0;exitDy=0;fontSize=16;fontFamily=PingFang SC;" parent="P0ja4m1GKOgg7Rop0Mvm-24" source="uTpkXc_pbzOPR-OZeIzC-1" target="P0ja4m1GKOgg7Rop0Mvm-181" edge="1">
          <mxGeometry relative="1" as="geometry">
            <mxPoint x="11" y="280" as="sourcePoint" />
          </mxGeometry>
        </mxCell>
        <mxCell id="P0ja4m1GKOgg7Rop0Mvm-146" value="«Component»&lt;br style=&quot;font-size: 16px;&quot;&gt;&lt;b style=&quot;font-size: 16px;&quot;&gt;业务代码&lt;/b&gt;" style="html=1;fontSize=16;fontFamily=PingFang SC;" parent="P0ja4m1GKOgg7Rop0Mvm-24" vertex="1">
          <mxGeometry x="607.38" y="403" width="180" height="90" as="geometry" />
        </mxCell>
        <mxCell id="P0ja4m1GKOgg7Rop0Mvm-147" value="" style="shape=component;jettyWidth=8;jettyHeight=4;fontSize=16;fontFamily=PingFang SC;" parent="P0ja4m1GKOgg7Rop0Mvm-146" vertex="1">
          <mxGeometry x="1" width="20" height="20" relative="1" as="geometry">
            <mxPoint x="-27" y="7" as="offset" />
          </mxGeometry>
        </mxCell>
        <mxCell id="P0ja4m1GKOgg7Rop0Mvm-153" style="edgeStyle=orthogonalEdgeStyle;rounded=0;orthogonalLoop=1;jettySize=auto;html=1;endArrow=none;endFill=0;fontSize=16;fontFamily=PingFang SC;" parent="P0ja4m1GKOgg7Rop0Mvm-24" source="P0ja4m1GKOgg7Rop0Mvm-152" target="P0ja4m1GKOgg7Rop0Mvm-318" edge="1">
          <mxGeometry relative="1" as="geometry" />
        </mxCell>
        <mxCell id="P0ja4m1GKOgg7Rop0Mvm-152" value="appName/path" style="shape=providedRequiredInterface;html=1;verticalLabelPosition=bottom;direction=west;fontSize=16;fontFamily=PingFang SC;" parent="P0ja4m1GKOgg7Rop0Mvm-24" vertex="1">
          <mxGeometry x="285" y="410" width="20" height="20" as="geometry" />
        </mxCell>
        <mxCell id="P0ja4m1GKOgg7Rop0Mvm-157" style="edgeStyle=orthogonalEdgeStyle;rounded=0;orthogonalLoop=1;jettySize=auto;html=1;entryX=1;entryY=0.5;entryDx=0;entryDy=0;endArrow=none;endFill=0;exitX=1;exitY=0.5;exitDx=0;exitDy=0;exitPerimeter=0;fontSize=16;fontFamily=PingFang SC;" parent="P0ja4m1GKOgg7Rop0Mvm-24" source="P0ja4m1GKOgg7Rop0Mvm-155" target="P0ja4m1GKOgg7Rop0Mvm-318" edge="1">
          <mxGeometry relative="1" as="geometry" />
        </mxCell>
        <mxCell id="P0ja4m1GKOgg7Rop0Mvm-155" value="store" style="shape=providedRequiredInterface;html=1;verticalLabelPosition=bottom;direction=west;fontSize=16;fontFamily=PingFang SC;" parent="P0ja4m1GKOgg7Rop0Mvm-24" vertex="1">
          <mxGeometry x="267.38" y="651.99" width="20" height="20" as="geometry" />
        </mxCell>
        <mxCell id="P0ja4m1GKOgg7Rop0Mvm-161" style="edgeStyle=orthogonalEdgeStyle;rounded=0;orthogonalLoop=1;jettySize=auto;html=1;entryX=0.5;entryY=0;entryDx=0;entryDy=0;endArrow=none;endFill=0;exitX=1;exitY=0.5;exitDx=0;exitDy=0;exitPerimeter=0;fontSize=16;fontFamily=PingFang SC;" parent="P0ja4m1GKOgg7Rop0Mvm-24" source="P0ja4m1GKOgg7Rop0Mvm-158" target="P0ja4m1GKOgg7Rop0Mvm-146" edge="1">
          <mxGeometry relative="1" as="geometry">
            <mxPoint x="560" y="450" as="targetPoint" />
          </mxGeometry>
        </mxCell>
        <mxCell id="fyW6FbxkXhklxL_48_FK-1" style="edgeStyle=orthogonalEdgeStyle;rounded=0;orthogonalLoop=1;jettySize=auto;html=1;endArrow=none;endFill=0;fontSize=16;fontFamily=PingFang SC;" parent="P0ja4m1GKOgg7Rop0Mvm-24" source="P0ja4m1GKOgg7Rop0Mvm-158" target="P0ja4m1GKOgg7Rop0Mvm-318" edge="1">
          <mxGeometry relative="1" as="geometry">
            <Array as="points">
              <mxPoint x="610" y="352" />
              <mxPoint x="155" y="352" />
            </Array>
          </mxGeometry>
        </mxCell>
        <mxCell id="P0ja4m1GKOgg7Rop0Mvm-158" value="$i" style="shape=providedRequiredInterface;html=1;verticalLabelPosition=bottom;fontSize=16;fontFamily=PingFang SC;" parent="P0ja4m1GKOgg7Rop0Mvm-24" vertex="1">
          <mxGeometry x="600" y="290.98" width="20" height="20" as="geometry" />
        </mxCell>
        <mxCell id="P0ja4m1GKOgg7Rop0Mvm-164" style="edgeStyle=orthogonalEdgeStyle;rounded=0;orthogonalLoop=1;jettySize=auto;html=1;entryX=0.883;entryY=0.007;entryDx=0;entryDy=0;entryPerimeter=0;endArrow=none;endFill=0;fontSize=16;fontFamily=PingFang SC;" parent="P0ja4m1GKOgg7Rop0Mvm-24" source="P0ja4m1GKOgg7Rop0Mvm-162" target="P0ja4m1GKOgg7Rop0Mvm-146" edge="1">
          <mxGeometry relative="1" as="geometry" />
        </mxCell>
        <mxCell id="P0ja4m1GKOgg7Rop0Mvm-162" value="第三方依赖&lt;br style=&quot;font-size: 16px;&quot;&gt;（sortablejs...）" style="shape=folder;fontStyle=1;spacingTop=10;tabWidth=40;tabHeight=14;tabPosition=left;html=1;fontSize=16;fontFamily=PingFang SC;" parent="P0ja4m1GKOgg7Rop0Mvm-24" vertex="1">
          <mxGeometry x="810" y="290.98" width="140" height="80" as="geometry" />
        </mxCell>
        <mxCell id="P0ja4m1GKOgg7Rop0Mvm-168" style="edgeStyle=orthogonalEdgeStyle;rounded=0;orthogonalLoop=1;jettySize=auto;html=1;endArrow=none;endFill=0;fontSize=16;fontFamily=PingFang SC;" parent="P0ja4m1GKOgg7Rop0Mvm-24" source="P0ja4m1GKOgg7Rop0Mvm-165" target="P0ja4m1GKOgg7Rop0Mvm-146" edge="1">
          <mxGeometry relative="1" as="geometry" />
        </mxCell>
        <mxCell id="P0ja4m1GKOgg7Rop0Mvm-165" value="组件名" style="shape=providedRequiredInterface;html=1;verticalLabelPosition=bottom;fontSize=16;fontFamily=PingFang SC;" parent="P0ja4m1GKOgg7Rop0Mvm-24" vertex="1">
          <mxGeometry x="85" y="140" width="20" height="20" as="geometry" />
        </mxCell>
        <mxCell id="P0ja4m1GKOgg7Rop0Mvm-186" value="" style="edgeStyle=orthogonalEdgeStyle;rounded=0;orthogonalLoop=1;jettySize=auto;html=1;endArrow=none;endFill=0;fontSize=16;fontFamily=PingFang SC;" parent="P0ja4m1GKOgg7Rop0Mvm-24" source="P0ja4m1GKOgg7Rop0Mvm-180" target="P0ja4m1GKOgg7Rop0Mvm-72" edge="1">
          <mxGeometry relative="1" as="geometry" />
        </mxCell>
        <mxCell id="P0ja4m1GKOgg7Rop0Mvm-180" value="initI18n" style="shape=providedRequiredInterface;html=1;verticalLabelPosition=bottom;fontSize=16;fontFamily=PingFang SC;" parent="P0ja4m1GKOgg7Rop0Mvm-24" vertex="1">
          <mxGeometry x="310" y="290.98" width="20" height="20" as="geometry" />
        </mxCell>
        <mxCell id="P0ja4m1GKOgg7Rop0Mvm-184" value="" style="edgeStyle=orthogonalEdgeStyle;rounded=0;orthogonalLoop=1;jettySize=auto;html=1;endArrow=none;endFill=0;fontSize=16;fontFamily=PingFang SC;" parent="P0ja4m1GKOgg7Rop0Mvm-24" source="P0ja4m1GKOgg7Rop0Mvm-181" target="P0ja4m1GKOgg7Rop0Mvm-51" edge="1">
          <mxGeometry relative="1" as="geometry" />
        </mxCell>
        <mxCell id="P0ja4m1GKOgg7Rop0Mvm-181" value="event" style="shape=providedRequiredInterface;html=1;verticalLabelPosition=bottom;fontSize=16;fontFamily=PingFang SC;" parent="P0ja4m1GKOgg7Rop0Mvm-24" vertex="1">
          <mxGeometry x="310" y="192.00000000000006" width="20" height="20" as="geometry" />
        </mxCell>
        <mxCell id="P0ja4m1GKOgg7Rop0Mvm-274" value="" style="strokeColor=inherit;fillColor=inherit;gradientColor=inherit;shape=rect;points=[[0,0.5,0]];html=1;resizable=1;align=right;verticalAlign=bottom;labelPosition=left;verticalLabelPosition=top;labelBackgroundColor=none;fontSize=16;paart=1;fontFamily=PingFang SC;" parent="P0ja4m1GKOgg7Rop0Mvm-24" vertex="1">
          <mxGeometry x="-8.695652173913004" y="411.5000000000003" width="20" height="20" as="geometry" />
        </mxCell>
        <mxCell id="P0ja4m1GKOgg7Rop0Mvm-322" style="edgeStyle=orthogonalEdgeStyle;rounded=0;orthogonalLoop=1;jettySize=auto;html=1;entryX=0.985;entryY=0.45;entryDx=0;entryDy=0;entryPerimeter=0;endArrow=none;endFill=0;fontSize=16;fontFamily=PingFang SC;" parent="P0ja4m1GKOgg7Rop0Mvm-24" source="P0ja4m1GKOgg7Rop0Mvm-318" target="P0ja4m1GKOgg7Rop0Mvm-274" edge="1">
          <mxGeometry relative="1" as="geometry">
            <mxPoint x="80" y="532" as="targetPoint" />
          </mxGeometry>
        </mxCell>
        <mxCell id="P0ja4m1GKOgg7Rop0Mvm-318" value="«Component»&lt;br style=&quot;font-size: 16px;&quot;&gt;remoteEntry" style="html=1;fontSize=16;fontFamily=PingFang SC;" parent="P0ja4m1GKOgg7Rop0Mvm-24" vertex="1">
          <mxGeometry x="85" y="477.60576923076917" width="140" height="60" as="geometry" />
        </mxCell>
        <mxCell id="P0ja4m1GKOgg7Rop0Mvm-319" value="" style="shape=component;jettyWidth=8;jettyHeight=4;fontSize=16;fontFamily=PingFang SC;" parent="P0ja4m1GKOgg7Rop0Mvm-318" vertex="1">
          <mxGeometry x="1" width="20" height="20" relative="1" as="geometry">
            <mxPoint x="-27" y="5.550769230769184" as="offset" />
          </mxGeometry>
        </mxCell>
        <mxCell id="P0ja4m1GKOgg7Rop0Mvm-338" style="edgeStyle=orthogonalEdgeStyle;rounded=0;orthogonalLoop=1;jettySize=auto;html=1;entryX=0.5;entryY=0;entryDx=0;entryDy=0;endArrow=none;endFill=0;exitX=1;exitY=0.5;exitDx=0;exitDy=0;exitPerimeter=0;fontSize=16;fontFamily=PingFang SC;" parent="P0ja4m1GKOgg7Rop0Mvm-24" source="P0ja4m1GKOgg7Rop0Mvm-339" target="P0ja4m1GKOgg7Rop0Mvm-146" edge="1">
          <mxGeometry relative="1" as="geometry" />
        </mxCell>
        <mxCell id="P0ja4m1GKOgg7Rop0Mvm-336" value="«Component»&lt;br style=&quot;font-size: 16px;&quot;&gt;&lt;b style=&quot;font-size: 16px;&quot;&gt;CommonModule&lt;/b&gt;" style="html=1;fontSize=16;fontFamily=PingFang SC;" parent="P0ja4m1GKOgg7Rop0Mvm-24" vertex="1">
          <mxGeometry x="810" y="67.005" width="140" height="60" as="geometry" />
        </mxCell>
        <mxCell id="P0ja4m1GKOgg7Rop0Mvm-337" value="" style="shape=component;jettyWidth=8;jettyHeight=4;fontSize=16;fontFamily=PingFang SC;" parent="P0ja4m1GKOgg7Rop0Mvm-336" vertex="1">
          <mxGeometry x="1" width="20" height="20" relative="1" as="geometry">
            <mxPoint x="-27" y="5" as="offset" />
          </mxGeometry>
        </mxCell>
        <mxCell id="P0ja4m1GKOgg7Rop0Mvm-339" value="" style="shape=providedRequiredInterface;html=1;verticalLabelPosition=bottom;direction=west;fontSize=16;fontFamily=PingFang SC;" parent="P0ja4m1GKOgg7Rop0Mvm-24" vertex="1">
          <mxGeometry x="730" y="87" width="20" height="20" as="geometry" />
        </mxCell>
        <mxCell id="P0ja4m1GKOgg7Rop0Mvm-340" style="edgeStyle=orthogonalEdgeStyle;rounded=0;orthogonalLoop=1;jettySize=auto;html=1;entryX=0;entryY=0.5;entryDx=0;entryDy=0;endArrow=none;endFill=0;exitX=0;exitY=0.5;exitDx=0;exitDy=0;entryPerimeter=0;fontSize=16;fontFamily=PingFang SC;" parent="P0ja4m1GKOgg7Rop0Mvm-24" source="P0ja4m1GKOgg7Rop0Mvm-336" target="P0ja4m1GKOgg7Rop0Mvm-339" edge="1">
          <mxGeometry relative="1" as="geometry">
            <mxPoint x="1240" y="-0.005000000000109139" as="sourcePoint" />
            <mxPoint x="1160" y="347.3899999999999" as="targetPoint" />
          </mxGeometry>
        </mxCell>
        <mxCell id="uTpkXc_pbzOPR-OZeIzC-1" value="«Component»&lt;br style=&quot;font-size: 16px;&quot;&gt;&lt;b style=&quot;font-size: 16px;&quot;&gt;Boostrap&lt;/b&gt;" style="html=1;fontSize=16;fontFamily=PingFang SC;" parent="P0ja4m1GKOgg7Rop0Mvm-24" vertex="1">
          <mxGeometry x="85" y="240.00499999999988" width="140" height="60" as="geometry" />
        </mxCell>
        <mxCell id="uTpkXc_pbzOPR-OZeIzC-2" value="" style="shape=component;jettyWidth=8;jettyHeight=4;fontSize=16;fontFamily=PingFang SC;" parent="uTpkXc_pbzOPR-OZeIzC-1" vertex="1">
          <mxGeometry x="1" width="20" height="20" relative="1" as="geometry">
            <mxPoint x="-27" y="10.169999999999892" as="offset" />
          </mxGeometry>
        </mxCell>
        <mxCell id="fyW6FbxkXhklxL_48_FK-5" style="edgeStyle=orthogonalEdgeStyle;rounded=0;orthogonalLoop=1;jettySize=auto;html=1;endArrow=none;endFill=0;fontSize=16;fontFamily=PingFang SC;" parent="P0ja4m1GKOgg7Rop0Mvm-24" source="fyW6FbxkXhklxL_48_FK-3" target="P0ja4m1GKOgg7Rop0Mvm-62" edge="1">
          <mxGeometry relative="1" as="geometry" />
        </mxCell>
        <mxCell id="fyW6FbxkXhklxL_48_FK-3" value="Component" style="shape=providedRequiredInterface;html=1;verticalLabelPosition=bottom;direction=west;fontSize=16;fontFamily=PingFang SC;" parent="P0ja4m1GKOgg7Rop0Mvm-24" vertex="1">
          <mxGeometry x="547.38" y="410" width="20" height="20" as="geometry" />
        </mxCell>
        <mxCell id="P0ja4m1GKOgg7Rop0Mvm-138" style="edgeStyle=orthogonalEdgeStyle;rounded=0;orthogonalLoop=1;jettySize=auto;html=1;entryX=0.45;entryY=0.5;entryDx=0;entryDy=0;entryPerimeter=0;endArrow=none;endFill=0;fontSize=16;startArrow=none;fontFamily=PingFang SC;" parent="P0ja4m1GKOgg7Rop0Mvm-1" source="P0ja4m1GKOgg7Rop0Mvm-215" target="P0ja4m1GKOgg7Rop0Mvm-137" edge="1">
          <mxGeometry relative="1" as="geometry">
            <mxPoint x="129.99997999998004" y="209.5" as="sourcePoint" />
          </mxGeometry>
        </mxCell>
        <mxCell id="P0ja4m1GKOgg7Rop0Mvm-132" value="«Component»&lt;br style=&quot;font-size: 16px;&quot;&gt;&lt;b style=&quot;font-size: 16px;&quot;&gt;基座&lt;/b&gt;" style="html=1;verticalAlign=top;fontSize=16;fontFamily=PingFang SC;" parent="P0ja4m1GKOgg7Rop0Mvm-1" vertex="1">
          <mxGeometry x="-750" y="-71.5" width="790.004347826087" height="670.5" as="geometry" />
        </mxCell>
        <mxCell id="P0ja4m1GKOgg7Rop0Mvm-133" value="" style="shape=component;jettyWidth=8;jettyHeight=4;fontSize=16;fontFamily=PingFang SC;" parent="P0ja4m1GKOgg7Rop0Mvm-132" vertex="1">
          <mxGeometry x="1" width="20" height="20" relative="1" as="geometry">
            <mxPoint x="-27" y="7" as="offset" />
          </mxGeometry>
        </mxCell>
        <mxCell id="_i9oU_zUnFVyXfJFAMEZ-109" style="edgeStyle=orthogonalEdgeStyle;rounded=0;orthogonalLoop=1;jettySize=auto;html=1;endArrow=none;endFill=0;entryX=0.5;entryY=0;entryDx=0;entryDy=0;fontSize=16;fontFamily=PingFang SC;" parent="P0ja4m1GKOgg7Rop0Mvm-132" source="P0ja4m1GKOgg7Rop0Mvm-200" target="_i9oU_zUnFVyXfJFAMEZ-81" edge="1">
          <mxGeometry relative="1" as="geometry" />
        </mxCell>
        <mxCell id="P0ja4m1GKOgg7Rop0Mvm-200" value="«Component»&lt;br style=&quot;font-size: 16px;&quot;&gt;&lt;b style=&quot;font-size: 16px;&quot;&gt;i18nIntl&lt;/b&gt;" style="html=1;fontFamily=PingFang SC;fontSize=16;fontColor=#000000;align=center;strokeColor=#000000;fillColor=#ffffff;" parent="P0ja4m1GKOgg7Rop0Mvm-132" vertex="1">
          <mxGeometry x="315" y="164.5" width="140" height="60" as="geometry" />
        </mxCell>
        <mxCell id="_i9oU_zUnFVyXfJFAMEZ-110" style="edgeStyle=orthogonalEdgeStyle;rounded=0;orthogonalLoop=1;jettySize=auto;html=1;endArrow=none;endFill=0;entryX=0.5;entryY=0;entryDx=0;entryDy=0;fontSize=16;fontFamily=PingFang SC;" parent="P0ja4m1GKOgg7Rop0Mvm-132" source="P0ja4m1GKOgg7Rop0Mvm-202" target="_i9oU_zUnFVyXfJFAMEZ-81" edge="1">
          <mxGeometry relative="1" as="geometry" />
        </mxCell>
        <mxCell id="P0ja4m1GKOgg7Rop0Mvm-215" value="" style="strokeColor=inherit;fillColor=inherit;gradientColor=inherit;shape=rect;points=[[0,0.5,0]];html=1;resizable=1;align=right;verticalAlign=bottom;labelPosition=left;verticalLabelPosition=top;labelBackgroundColor=none;fontSize=16;paart=1;fontFamily=PingFang SC;" parent="P0ja4m1GKOgg7Rop0Mvm-132" vertex="1">
          <mxGeometry x="780.004347826087" y="271.5000000000003" width="20" height="20" as="geometry" />
        </mxCell>
        <mxCell id="_i9oU_zUnFVyXfJFAMEZ-81" value="«Component»&lt;br style=&quot;font-size: 16px;&quot;&gt;&lt;b style=&quot;font-size: 16px;&quot;&gt;remoteEntry&lt;/b&gt;" style="html=1;fontSize=16;fontFamily=PingFang SC;" parent="P0ja4m1GKOgg7Rop0Mvm-132" vertex="1">
          <mxGeometry x="540" y="251.5" width="140" height="60" as="geometry" />
        </mxCell>
        <mxCell id="_i9oU_zUnFVyXfJFAMEZ-85" style="edgeStyle=orthogonalEdgeStyle;rounded=0;orthogonalLoop=1;jettySize=auto;html=1;endArrow=none;endFill=0;fontSize=16;fontFamily=PingFang SC;" parent="P0ja4m1GKOgg7Rop0Mvm-132" source="_i9oU_zUnFVyXfJFAMEZ-81" target="P0ja4m1GKOgg7Rop0Mvm-215" edge="1">
          <mxGeometry relative="1" as="geometry">
            <mxPoint x="-70" y="210" as="sourcePoint" />
            <mxPoint x="710" y="281.5" as="targetPoint" />
          </mxGeometry>
        </mxCell>
        <mxCell id="uTpkXc_pbzOPR-OZeIzC-23" value="" style="shape=component;jettyWidth=8;jettyHeight=4;fontSize=16;fontFamily=PingFang SC;" parent="P0ja4m1GKOgg7Rop0Mvm-132" vertex="1">
          <mxGeometry x="428" y="171.5" width="20" height="20" as="geometry">
            <mxPoint x="-27" y="7" as="offset" />
          </mxGeometry>
        </mxCell>
        <mxCell id="uTpkXc_pbzOPR-OZeIzC-28" style="edgeStyle=orthogonalEdgeStyle;rounded=0;orthogonalLoop=1;jettySize=auto;html=1;endArrow=none;endFill=0;fontSize=16;fontFamily=PingFang SC;" parent="P0ja4m1GKOgg7Rop0Mvm-132" source="uTpkXc_pbzOPR-OZeIzC-26" target="_i9oU_zUnFVyXfJFAMEZ-81" edge="1">
          <mxGeometry relative="1" as="geometry" />
        </mxCell>
        <mxCell id="uTpkXc_pbzOPR-OZeIzC-26" value="«Component»&lt;br style=&quot;font-size: 16px;&quot;&gt;&lt;b style=&quot;font-size: 16px;&quot;&gt;业务组件、mixin&lt;/b&gt;" style="html=1;verticalAlign=middle;fontSize=16;fontFamily=PingFang SC;" parent="P0ja4m1GKOgg7Rop0Mvm-132" vertex="1">
          <mxGeometry x="540" y="73" width="140" height="60" as="geometry" />
        </mxCell>
        <mxCell id="uTpkXc_pbzOPR-OZeIzC-27" value="" style="shape=component;jettyWidth=8;jettyHeight=4;fontSize=16;fontFamily=PingFang SC;" parent="uTpkXc_pbzOPR-OZeIzC-26" vertex="1">
          <mxGeometry x="1" width="20" height="20" relative="1" as="geometry">
            <mxPoint x="-27" y="7" as="offset" />
          </mxGeometry>
        </mxCell>
        <mxCell id="nSzVaqNJ8Q3Y4NfpalM6-5" value="" style="group;fontFamily=PingFang SC;fontSize=16;" parent="P0ja4m1GKOgg7Rop0Mvm-132" vertex="1" connectable="0">
          <mxGeometry x="315" y="71.5" width="140" height="60" as="geometry" />
        </mxCell>
        <mxCell id="P0ja4m1GKOgg7Rop0Mvm-202" value="«Component»&lt;br style=&quot;font-size: 16px;&quot;&gt;&lt;b style=&quot;font-size: 16px;&quot;&gt;NavMenu&lt;/b&gt;" style="html=1;fontSize=16;fontFamily=PingFang SC;" parent="nSzVaqNJ8Q3Y4NfpalM6-5" vertex="1">
          <mxGeometry width="140" height="60" as="geometry" />
        </mxCell>
        <mxCell id="uTpkXc_pbzOPR-OZeIzC-22" value="" style="shape=component;jettyWidth=8;jettyHeight=4;fontSize=16;fontFamily=PingFang SC;" parent="nSzVaqNJ8Q3Y4NfpalM6-5" vertex="1">
          <mxGeometry x="113" y="8" width="20" height="20" as="geometry">
            <mxPoint x="-27" y="7" as="offset" />
          </mxGeometry>
        </mxCell>
        <mxCell id="P0ja4m1GKOgg7Rop0Mvm-220" style="edgeStyle=orthogonalEdgeStyle;rounded=0;orthogonalLoop=1;jettySize=auto;html=1;endArrow=none;endFill=0;fontSize=16;fontFamily=PingFang SC;" parent="P0ja4m1GKOgg7Rop0Mvm-132" source="_i9oU_zUnFVyXfJFAMEZ-26" target="P0ja4m1GKOgg7Rop0Mvm-218" edge="1">
          <mxGeometry relative="1" as="geometry" />
        </mxCell>
        <mxCell id="nSzVaqNJ8Q3Y4NfpalM6-7" style="edgeStyle=orthogonalEdgeStyle;rounded=0;orthogonalLoop=1;jettySize=auto;html=1;entryX=0;entryY=0.5;entryDx=0;entryDy=0;endArrow=none;endFill=0;fontFamily=PingFang SC;fontSize=16;" parent="P0ja4m1GKOgg7Rop0Mvm-132" source="P0ja4m1GKOgg7Rop0Mvm-326" target="P0ja4m1GKOgg7Rop0Mvm-218" edge="1">
          <mxGeometry relative="1" as="geometry" />
        </mxCell>
        <mxCell id="P0ja4m1GKOgg7Rop0Mvm-326" value="«Component»&lt;br style=&quot;font-size: 16px;&quot;&gt;&lt;b style=&quot;font-size: 16px;&quot;&gt;HostEvent&lt;/b&gt;" style="html=1;fontSize=16;fontFamily=PingFang SC;" parent="P0ja4m1GKOgg7Rop0Mvm-132" vertex="1">
          <mxGeometry x="40" y="359.88" width="140" height="60" as="geometry" />
        </mxCell>
        <mxCell id="P0ja4m1GKOgg7Rop0Mvm-327" value="" style="shape=component;jettyWidth=8;jettyHeight=4;fontSize=16;fontFamily=PingFang SC;" parent="P0ja4m1GKOgg7Rop0Mvm-326" vertex="1">
          <mxGeometry x="1" width="20" height="20" relative="1" as="geometry">
            <mxPoint x="-27" y="7" as="offset" />
          </mxGeometry>
        </mxCell>
        <mxCell id="_i9oU_zUnFVyXfJFAMEZ-7" style="edgeStyle=orthogonalEdgeStyle;rounded=0;orthogonalLoop=1;jettySize=auto;html=1;endArrow=none;endFill=0;fontSize=16;entryX=0;entryY=0.5;entryDx=0;entryDy=0;entryPerimeter=0;exitX=0.25;exitY=1;exitDx=0;exitDy=0;fontFamily=PingFang SC;" parent="P0ja4m1GKOgg7Rop0Mvm-132" source="P0ja4m1GKOgg7Rop0Mvm-218" target="_i9oU_zUnFVyXfJFAMEZ-6" edge="1">
          <mxGeometry relative="1" as="geometry">
            <mxPoint x="-260" y="383" as="sourcePoint" />
            <mxPoint x="-440" y="403" as="targetPoint" />
          </mxGeometry>
        </mxCell>
        <mxCell id="_i9oU_zUnFVyXfJFAMEZ-20" value="«Component»&lt;br style=&quot;font-size: 16px;&quot;&gt;&lt;b style=&quot;font-size: 16px;&quot;&gt;Boostrap&lt;/b&gt;" style="html=1;fontSize=16;fontFamily=PingFang SC;" parent="P0ja4m1GKOgg7Rop0Mvm-132" vertex="1">
          <mxGeometry x="570" y="454.5" width="140" height="60" as="geometry" />
        </mxCell>
        <mxCell id="_i9oU_zUnFVyXfJFAMEZ-21" value="" style="shape=component;jettyWidth=8;jettyHeight=4;fontSize=16;fontFamily=PingFang SC;" parent="_i9oU_zUnFVyXfJFAMEZ-20" vertex="1">
          <mxGeometry x="1" width="20" height="20" relative="1" as="geometry">
            <mxPoint x="-27" y="7" as="offset" />
          </mxGeometry>
        </mxCell>
        <mxCell id="_i9oU_zUnFVyXfJFAMEZ-26" value="remoteList" style="shape=providedRequiredInterface;html=1;verticalLabelPosition=bottom;direction=west;fontSize=16;fontFamily=PingFang SC;" parent="P0ja4m1GKOgg7Rop0Mvm-132" vertex="1">
          <mxGeometry x="490" y="474.5" width="20" height="20" as="geometry" />
        </mxCell>
        <mxCell id="_i9oU_zUnFVyXfJFAMEZ-27" style="edgeStyle=orthogonalEdgeStyle;rounded=0;orthogonalLoop=1;jettySize=auto;html=1;endArrow=none;endFill=0;fontSize=16;fontFamily=PingFang SC;" parent="P0ja4m1GKOgg7Rop0Mvm-132" source="_i9oU_zUnFVyXfJFAMEZ-20" target="_i9oU_zUnFVyXfJFAMEZ-26" edge="1">
          <mxGeometry relative="1" as="geometry">
            <mxPoint x="-210" y="413" as="sourcePoint" />
            <mxPoint x="-295" y="413" as="targetPoint" />
          </mxGeometry>
        </mxCell>
        <mxCell id="nSzVaqNJ8Q3Y4NfpalM6-6" value="" style="group;fontFamily=PingFang SC;fontSize=16;" parent="P0ja4m1GKOgg7Rop0Mvm-132" vertex="1" connectable="0">
          <mxGeometry x="273" y="334.5" width="175" height="110.75" as="geometry" />
        </mxCell>
        <mxCell id="P0ja4m1GKOgg7Rop0Mvm-218" value="«Component»&lt;br style=&quot;font-size: 16px;&quot;&gt;registerApps" style="html=1;fontSize=16;fontFamily=PingFang SC;" parent="nSzVaqNJ8Q3Y4NfpalM6-6" vertex="1">
          <mxGeometry width="175" height="110.75" as="geometry" />
        </mxCell>
        <mxCell id="uTpkXc_pbzOPR-OZeIzC-21" value="" style="shape=component;jettyWidth=8;jettyHeight=4;fontSize=16;fontFamily=PingFang SC;" parent="nSzVaqNJ8Q3Y4NfpalM6-6" vertex="1">
          <mxGeometry x="143.25" y="10.92" width="20" height="20" as="geometry">
            <mxPoint x="-27" y="7" as="offset" />
          </mxGeometry>
        </mxCell>
        <mxCell id="_i9oU_zUnFVyXfJFAMEZ-86" value="" style="group;fontSize=16;fontFamily=PingFang SC;" parent="P0ja4m1GKOgg7Rop0Mvm-132" vertex="1" connectable="0">
          <mxGeometry x="40" y="454.5" width="200" height="60" as="geometry" />
        </mxCell>
        <mxCell id="_i9oU_zUnFVyXfJFAMEZ-69" value="«Component»&lt;br style=&quot;font-size: 16px;&quot;&gt;&lt;b style=&quot;font-size: 16px;&quot;&gt;Vuex&lt;/b&gt;" style="html=1;fontSize=16;fontFamily=PingFang SC;" parent="_i9oU_zUnFVyXfJFAMEZ-86" vertex="1">
          <mxGeometry width="140" height="60" as="geometry" />
        </mxCell>
        <mxCell id="_i9oU_zUnFVyXfJFAMEZ-70" value="" style="shape=component;jettyWidth=8;jettyHeight=4;fontSize=16;fontFamily=PingFang SC;" parent="_i9oU_zUnFVyXfJFAMEZ-69" vertex="1">
          <mxGeometry x="1" width="20" height="20" relative="1" as="geometry">
            <mxPoint x="-27" y="7" as="offset" />
          </mxGeometry>
        </mxCell>
        <mxCell id="_i9oU_zUnFVyXfJFAMEZ-72" value="store" style="shape=providedRequiredInterface;html=1;verticalLabelPosition=bottom;direction=west;fontSize=16;fontFamily=PingFang SC;" parent="_i9oU_zUnFVyXfJFAMEZ-86" vertex="1">
          <mxGeometry x="180" y="20" width="20" height="20" as="geometry" />
        </mxCell>
        <mxCell id="_i9oU_zUnFVyXfJFAMEZ-71" style="edgeStyle=orthogonalEdgeStyle;rounded=0;orthogonalLoop=1;jettySize=auto;html=1;entryX=1;entryY=0.5;entryDx=0;entryDy=0;endArrow=none;endFill=0;fontSize=16;fontFamily=PingFang SC;" parent="_i9oU_zUnFVyXfJFAMEZ-86" source="_i9oU_zUnFVyXfJFAMEZ-72" target="_i9oU_zUnFVyXfJFAMEZ-69" edge="1">
          <mxGeometry relative="1" as="geometry" />
        </mxCell>
        <mxCell id="_i9oU_zUnFVyXfJFAMEZ-87" value="" style="group;fontSize=16;fontFamily=PingFang SC;" parent="P0ja4m1GKOgg7Rop0Mvm-132" vertex="1" connectable="0">
          <mxGeometry x="40" y="554.5" width="200" height="60" as="geometry" />
        </mxCell>
        <mxCell id="_i9oU_zUnFVyXfJFAMEZ-0" value="«Component»&lt;br style=&quot;font-size: 16px;&quot;&gt;&lt;b style=&quot;font-size: 16px;&quot;&gt;Router&lt;/b&gt;" style="html=1;fontSize=16;fontFamily=PingFang SC;" parent="_i9oU_zUnFVyXfJFAMEZ-87" vertex="1">
          <mxGeometry width="140" height="60" as="geometry" />
        </mxCell>
        <mxCell id="_i9oU_zUnFVyXfJFAMEZ-1" value="" style="shape=component;jettyWidth=8;jettyHeight=4;fontSize=16;fontFamily=PingFang SC;" parent="_i9oU_zUnFVyXfJFAMEZ-0" vertex="1">
          <mxGeometry x="1" width="20" height="20" relative="1" as="geometry">
            <mxPoint x="-27" y="7" as="offset" />
          </mxGeometry>
        </mxCell>
        <mxCell id="_i9oU_zUnFVyXfJFAMEZ-6" value="router" style="shape=providedRequiredInterface;html=1;verticalLabelPosition=bottom;direction=west;fontSize=16;fontFamily=PingFang SC;" parent="_i9oU_zUnFVyXfJFAMEZ-87" vertex="1">
          <mxGeometry x="180" y="20" width="20" height="20" as="geometry" />
        </mxCell>
        <mxCell id="_i9oU_zUnFVyXfJFAMEZ-5" style="edgeStyle=orthogonalEdgeStyle;rounded=0;orthogonalLoop=1;jettySize=auto;html=1;endArrow=none;endFill=0;fontSize=16;fontFamily=PingFang SC;" parent="_i9oU_zUnFVyXfJFAMEZ-87" source="_i9oU_zUnFVyXfJFAMEZ-6" target="_i9oU_zUnFVyXfJFAMEZ-0" edge="1">
          <mxGeometry relative="1" as="geometry" />
        </mxCell>
        <mxCell id="nSzVaqNJ8Q3Y4NfpalM6-9" style="edgeStyle=orthogonalEdgeStyle;rounded=0;orthogonalLoop=1;jettySize=auto;html=1;entryX=0.25;entryY=1;entryDx=0;entryDy=0;endArrow=none;endFill=0;fontFamily=PingFang SC;fontSize=16;" parent="P0ja4m1GKOgg7Rop0Mvm-132" source="_i9oU_zUnFVyXfJFAMEZ-72" target="P0ja4m1GKOgg7Rop0Mvm-218" edge="1">
          <mxGeometry relative="1" as="geometry" />
        </mxCell>
        <mxCell id="_i9oU_zUnFVyXfJFAMEZ-79" value="&lt;b style=&quot;font-size: 16px;&quot;&gt;过滤器&lt;/b&gt;" style="html=1;verticalAlign=middle;fontSize=16;fontFamily=PingFang SC;" parent="P0ja4m1GKOgg7Rop0Mvm-132" vertex="1">
          <mxGeometry x="40" y="71.5" width="100" height="40" as="geometry" />
        </mxCell>
        <mxCell id="P0ja4m1GKOgg7Rop0Mvm-107" value="&lt;b style=&quot;font-size: 16px;&quot;&gt;全局组件&lt;/b&gt;" style="html=1;verticalAlign=middle;fontSize=16;fontFamily=PingFang SC;" parent="P0ja4m1GKOgg7Rop0Mvm-132" vertex="1">
          <mxGeometry x="40" y="111.5" width="100" height="40" as="geometry" />
        </mxCell>
        <mxCell id="88ZOR_6z-h5jlWXxYAyo-15" value="&lt;b style=&quot;font-size: 16px;&quot;&gt;Sentry&lt;/b&gt;" style="html=1;fontSize=16;fontFamily=PingFang SC;" parent="P0ja4m1GKOgg7Rop0Mvm-132" vertex="1">
          <mxGeometry x="140" y="111.5" width="100" height="40" as="geometry" />
        </mxCell>
        <mxCell id="P0ja4m1GKOgg7Rop0Mvm-346" value="&lt;b style=&quot;font-size: 16px;&quot;&gt;Matomo&lt;/b&gt;" style="html=1;verticalAlign=middle;fontSize=16;fontFamily=PingFang SC;" parent="P0ja4m1GKOgg7Rop0Mvm-132" vertex="1">
          <mxGeometry x="140" y="151.5" width="100" height="40" as="geometry" />
        </mxCell>
        <mxCell id="_i9oU_zUnFVyXfJFAMEZ-28" value="CSS" style="html=1;fontSize=16;fontFamily=PingFang SC;" parent="P0ja4m1GKOgg7Rop0Mvm-132" vertex="1">
          <mxGeometry x="40" y="151.5" width="100" height="40" as="geometry" />
        </mxCell>
        <mxCell id="U4MLQMwE_INXQrKsp666-0" value="initAxios" style="html=1;fontSize=16;fontFamily=PingFang SC;" parent="P0ja4m1GKOgg7Rop0Mvm-132" vertex="1">
          <mxGeometry x="140" y="71.5" width="100" height="40" as="geometry" />
        </mxCell>
        <mxCell id="P0ja4m1GKOgg7Rop0Mvm-139" style="edgeStyle=orthogonalEdgeStyle;rounded=0;orthogonalLoop=1;jettySize=auto;html=1;entryX=0;entryY=0.5;entryDx=0;entryDy=0;entryPerimeter=0;endArrow=none;endFill=0;fontSize=16;fontFamily=PingFang SC;" parent="P0ja4m1GKOgg7Rop0Mvm-1" source="P0ja4m1GKOgg7Rop0Mvm-137" target="P0ja4m1GKOgg7Rop0Mvm-37" edge="1">
          <mxGeometry relative="1" as="geometry">
            <mxPoint x="500" y="34.6099999999999" as="targetPoint" />
          </mxGeometry>
        </mxCell>
        <mxCell id="P0ja4m1GKOgg7Rop0Mvm-137" value="portal/exports" style="shape=providedRequiredInterface;html=1;verticalLabelPosition=bottom;fontSize=16;fontFamily=PingFang SC;" parent="P0ja4m1GKOgg7Rop0Mvm-1" vertex="1">
          <mxGeometry x="270" y="200" width="20" height="20" as="geometry" />
        </mxCell>
        <mxCell id="P0ja4m1GKOgg7Rop0Mvm-197" value="visualization/exports" style="shape=providedRequiredInterface;html=1;verticalLabelPosition=bottom;direction=west;fontSize=16;fontFamily=PingFang SC;" parent="P0ja4m1GKOgg7Rop0Mvm-1" vertex="1">
          <mxGeometry x="200" y="320" width="20" height="20" as="geometry" />
        </mxCell>
        <mxCell id="P0ja4m1GKOgg7Rop0Mvm-199" style="edgeStyle=orthogonalEdgeStyle;rounded=0;orthogonalLoop=1;jettySize=auto;html=1;exitX=1;exitY=0.5;exitDx=0;exitDy=0;exitPerimeter=0;entryX=0.95;entryY=0.55;entryDx=0;entryDy=0;entryPerimeter=0;endArrow=none;endFill=0;fontSize=16;fontFamily=PingFang SC;" parent="P0ja4m1GKOgg7Rop0Mvm-1" source="P0ja4m1GKOgg7Rop0Mvm-197" target="P0ja4m1GKOgg7Rop0Mvm-198" edge="1">
          <mxGeometry relative="1" as="geometry">
            <mxPoint x="190" y="350" as="sourcePoint" />
            <mxPoint x="40" y="350.75" as="targetPoint" />
          </mxGeometry>
        </mxCell>
        <mxCell id="P0ja4m1GKOgg7Rop0Mvm-210" value="«Component»&lt;br style=&quot;font-size: 16px;&quot;&gt;&lt;b style=&quot;font-size: 16px;&quot;&gt;工程能力&lt;/b&gt;" style="html=1;verticalAlign=top;fontSize=16;fontFamily=PingFang SC;" parent="P0ja4m1GKOgg7Rop0Mvm-1" vertex="1">
          <mxGeometry x="20" y="-290" width="495" height="200" as="geometry" />
        </mxCell>
        <mxCell id="P0ja4m1GKOgg7Rop0Mvm-211" value="" style="shape=component;jettyWidth=8;jettyHeight=4;fontSize=16;fontFamily=PingFang SC;" parent="P0ja4m1GKOgg7Rop0Mvm-210" vertex="1">
          <mxGeometry x="1" width="20" height="20" relative="1" as="geometry">
            <mxPoint x="-27" y="7" as="offset" />
          </mxGeometry>
        </mxCell>
        <mxCell id="fyW6FbxkXhklxL_48_FK-13" value="«Component»&lt;br style=&quot;font-size: 16px;&quot;&gt;&lt;b style=&quot;font-size: 16px;&quot;&gt;Eslint/Stylelint&lt;/b&gt;" style="html=1;fontSize=16;fontFamily=PingFang SC;" parent="P0ja4m1GKOgg7Rop0Mvm-210" vertex="1">
          <mxGeometry x="20" y="60" width="140" height="60" as="geometry" />
        </mxCell>
        <mxCell id="fyW6FbxkXhklxL_48_FK-14" value="" style="shape=component;jettyWidth=8;jettyHeight=4;fontSize=16;fontFamily=PingFang SC;" parent="fyW6FbxkXhklxL_48_FK-13" vertex="1">
          <mxGeometry x="1" width="20" height="20" relative="1" as="geometry">
            <mxPoint x="-27" y="7" as="offset" />
          </mxGeometry>
        </mxCell>
        <mxCell id="fyW6FbxkXhklxL_48_FK-15" value="«Component»&lt;br style=&quot;font-size: 16px;&quot;&gt;&lt;b style=&quot;font-size: 16px;&quot;&gt;Babel&lt;/b&gt;" style="html=1;fontSize=16;fontFamily=PingFang SC;" parent="P0ja4m1GKOgg7Rop0Mvm-210" vertex="1">
          <mxGeometry x="180" y="60" width="140" height="60" as="geometry" />
        </mxCell>
        <mxCell id="fyW6FbxkXhklxL_48_FK-16" value="" style="shape=component;jettyWidth=8;jettyHeight=4;fontSize=16;fontFamily=PingFang SC;" parent="fyW6FbxkXhklxL_48_FK-15" vertex="1">
          <mxGeometry x="1" width="20" height="20" relative="1" as="geometry">
            <mxPoint x="-27" y="7" as="offset" />
          </mxGeometry>
        </mxCell>
        <mxCell id="fyW6FbxkXhklxL_48_FK-17" value="«Component»&lt;br style=&quot;font-size: 16px;&quot;&gt;&lt;b style=&quot;font-size: 16px;&quot;&gt;Codegen&lt;/b&gt;" style="html=1;fontSize=16;fontFamily=PingFang SC;" parent="P0ja4m1GKOgg7Rop0Mvm-210" vertex="1">
          <mxGeometry x="180" y="130" width="140" height="60" as="geometry" />
        </mxCell>
        <mxCell id="fyW6FbxkXhklxL_48_FK-18" value="" style="shape=component;jettyWidth=8;jettyHeight=4;fontSize=16;fontFamily=PingFang SC;" parent="fyW6FbxkXhklxL_48_FK-17" vertex="1">
          <mxGeometry x="1" width="20" height="20" relative="1" as="geometry">
            <mxPoint x="-27" y="7" as="offset" />
          </mxGeometry>
        </mxCell>
        <mxCell id="fyW6FbxkXhklxL_48_FK-19" value="«Component»&lt;br style=&quot;font-size: 16px;&quot;&gt;&lt;b style=&quot;font-size: 16px;&quot;&gt;TypeScript&lt;/b&gt;" style="html=1;fontSize=16;fontFamily=PingFang SC;" parent="P0ja4m1GKOgg7Rop0Mvm-210" vertex="1">
          <mxGeometry x="20" y="130" width="140" height="60" as="geometry" />
        </mxCell>
        <mxCell id="fyW6FbxkXhklxL_48_FK-20" value="" style="shape=component;jettyWidth=8;jettyHeight=4;fontSize=16;fontFamily=PingFang SC;" parent="fyW6FbxkXhklxL_48_FK-19" vertex="1">
          <mxGeometry x="1" width="20" height="20" relative="1" as="geometry">
            <mxPoint x="-27" y="7" as="offset" />
          </mxGeometry>
        </mxCell>
        <mxCell id="fyW6FbxkXhklxL_48_FK-21" value="«Component»&lt;br style=&quot;font-size: 16px;&quot;&gt;&lt;b style=&quot;font-size: 16px;&quot;&gt;Webpack&lt;/b&gt;" style="html=1;fontSize=16;fontFamily=PingFang SC;" parent="P0ja4m1GKOgg7Rop0Mvm-210" vertex="1">
          <mxGeometry x="340" y="60" width="140" height="60" as="geometry" />
        </mxCell>
        <mxCell id="fyW6FbxkXhklxL_48_FK-22" value="" style="shape=component;jettyWidth=8;jettyHeight=4;fontSize=16;fontFamily=PingFang SC;" parent="fyW6FbxkXhklxL_48_FK-21" vertex="1">
          <mxGeometry x="1" width="20" height="20" relative="1" as="geometry">
            <mxPoint x="-27" y="7" as="offset" />
          </mxGeometry>
        </mxCell>
        <mxCell id="uTpkXc_pbzOPR-OZeIzC-16" style="edgeStyle=orthogonalEdgeStyle;rounded=0;orthogonalLoop=1;jettySize=auto;html=1;endArrow=none;endFill=0;fontSize=16;fontFamily=PingFang SC;" parent="P0ja4m1GKOgg7Rop0Mvm-1" source="_i9oU_zUnFVyXfJFAMEZ-74" target="P0ja4m1GKOgg7Rop0Mvm-132" edge="1">
          <mxGeometry relative="1" as="geometry" />
        </mxCell>
        <mxCell id="uTpkXc_pbzOPR-OZeIzC-17" style="edgeStyle=orthogonalEdgeStyle;rounded=0;orthogonalLoop=1;jettySize=auto;html=1;endArrow=none;endFill=0;fontSize=16;fontFamily=PingFang SC;" parent="P0ja4m1GKOgg7Rop0Mvm-1" source="_i9oU_zUnFVyXfJFAMEZ-74" target="P0ja4m1GKOgg7Rop0Mvm-24" edge="1">
          <mxGeometry relative="1" as="geometry" />
        </mxCell>
        <mxCell id="_i9oU_zUnFVyXfJFAMEZ-74" value="«Component»&lt;br style=&quot;font-size: 16px;&quot;&gt;&lt;b style=&quot;font-size: 16px;&quot;&gt;ShareLib&lt;/b&gt;" style="html=1;verticalAlign=top;fontSize=16;fontFamily=PingFang SC;" parent="P0ja4m1GKOgg7Rop0Mvm-1" vertex="1">
          <mxGeometry x="-535" y="-440" width="360" height="270" as="geometry" />
        </mxCell>
        <mxCell id="_i9oU_zUnFVyXfJFAMEZ-75" value="" style="shape=component;jettyWidth=8;jettyHeight=4;fontSize=16;fontFamily=PingFang SC;" parent="_i9oU_zUnFVyXfJFAMEZ-74" vertex="1">
          <mxGeometry x="1" width="20" height="20" relative="1" as="geometry">
            <mxPoint x="-27" y="7" as="offset" />
          </mxGeometry>
        </mxCell>
        <mxCell id="_i9oU_zUnFVyXfJFAMEZ-76" value="vue" style="shape=folder;fontStyle=1;spacingTop=10;tabWidth=40;tabHeight=14;tabPosition=left;html=1;fontSize=16;fontFamily=PingFang SC;" parent="_i9oU_zUnFVyXfJFAMEZ-74" vertex="1">
          <mxGeometry x="50" y="67" width="70" height="50" as="geometry" />
        </mxCell>
        <mxCell id="_i9oU_zUnFVyXfJFAMEZ-77" value="vuex" style="shape=folder;fontStyle=1;spacingTop=10;tabWidth=40;tabHeight=14;tabPosition=left;html=1;fontSize=16;fontFamily=PingFang SC;" parent="_i9oU_zUnFVyXfJFAMEZ-74" vertex="1">
          <mxGeometry x="145" y="67" width="70" height="50" as="geometry" />
        </mxCell>
        <mxCell id="_i9oU_zUnFVyXfJFAMEZ-78" value="vue-router" style="shape=folder;fontStyle=1;spacingTop=10;tabWidth=40;tabHeight=14;tabPosition=left;html=1;fontSize=16;fontFamily=PingFang SC;" parent="_i9oU_zUnFVyXfJFAMEZ-74" vertex="1">
          <mxGeometry x="250" y="67" width="70" height="50" as="geometry" />
        </mxCell>
        <mxCell id="_i9oU_zUnFVyXfJFAMEZ-88" value="axios" style="shape=folder;fontStyle=1;spacingTop=10;tabWidth=40;tabHeight=14;tabPosition=left;html=1;fontSize=16;fontFamily=PingFang SC;" parent="_i9oU_zUnFVyXfJFAMEZ-74" vertex="1">
          <mxGeometry x="50" y="137" width="70" height="50" as="geometry" />
        </mxCell>
        <mxCell id="_i9oU_zUnFVyXfJFAMEZ-91" value="element-ui" style="shape=folder;fontStyle=1;spacingTop=10;tabWidth=40;tabHeight=14;tabPosition=left;html=1;fontSize=16;fontFamily=PingFang SC;" parent="_i9oU_zUnFVyXfJFAMEZ-74" vertex="1">
          <mxGeometry x="145" y="137" width="70" height="50" as="geometry" />
        </mxCell>
        <mxCell id="uTpkXc_pbzOPR-OZeIzC-29" value="lottie-web" style="shape=folder;fontStyle=1;spacingTop=10;tabWidth=40;tabHeight=14;tabPosition=left;html=1;fontSize=16;fontFamily=PingFang SC;" parent="_i9oU_zUnFVyXfJFAMEZ-74" vertex="1">
          <mxGeometry x="250" y="137" width="70" height="50" as="geometry" />
        </mxCell>
        <mxCell id="uTpkXc_pbzOPR-OZeIzC-30" value="lodash-es" style="shape=folder;fontStyle=1;spacingTop=10;tabWidth=40;tabHeight=14;tabPosition=left;html=1;fontSize=16;fontFamily=PingFang SC;" parent="_i9oU_zUnFVyXfJFAMEZ-74" vertex="1">
          <mxGeometry x="50" y="210" width="70" height="50" as="geometry" />
        </mxCell>
        <mxCell id="HXtS7eYUlpfFKkpnauk8-2" value="工程能力" style="shape=folder;fontStyle=1;spacingTop=10;tabWidth=40;tabHeight=14;tabPosition=left;html=1;fontSize=16;fontFamily=PingFang SC;" parent="_i9oU_zUnFVyXfJFAMEZ-74" vertex="1">
          <mxGeometry x="250" y="210" width="70" height="50" as="geometry" />
        </mxCell>
        <mxCell id="uTpkXc_pbzOPR-OZeIzC-18" value="其他若干子应用略" style="shape=note;whiteSpace=wrap;html=1;size=14;verticalAlign=middle;align=left;spacingTop=-6;fontSize=16;fontFamily=PingFang SC;" parent="P0ja4m1GKOgg7Rop0Mvm-1" vertex="1">
          <mxGeometry x="473" y="680" width="100" height="70" as="geometry" />
        </mxCell>
        <mxCell id="uTpkXc_pbzOPR-OZeIzC-20" value="" style="endArrow=none;dashed=1;html=1;fontSize=16;fontFamily=PingFang SC;" parent="P0ja4m1GKOgg7Rop0Mvm-1" source="uTpkXc_pbzOPR-OZeIzC-18" target="P0ja4m1GKOgg7Rop0Mvm-24" edge="1">
          <mxGeometry width="50" height="50" relative="1" as="geometry">
            <mxPoint x="523" y="659.2893218813452" as="sourcePoint" />
            <mxPoint x="523" y="609.2893218813452" as="targetPoint" />
          </mxGeometry>
        </mxCell>
        <mxCell id="P0ja4m1GKOgg7Rop0Mvm-198" value="" style="strokeColor=inherit;fillColor=inherit;gradientColor=inherit;shape=rect;points=[[0,0.5,0]];html=1;resizable=1;align=right;verticalAlign=bottom;labelPosition=left;verticalLabelPosition=top;labelBackgroundColor=none;fontSize=16;paart=1;fontFamily=PingFang SC;" parent="P0ja4m1GKOgg7Rop0Mvm-1" vertex="1">
          <mxGeometry x="30.00434782608704" y="340.0000000000003" width="20" height="20" as="geometry" />
        </mxCell>
        <mxCell id="_i9oU_zUnFVyXfJFAMEZ-22" style="edgeStyle=orthogonalEdgeStyle;rounded=0;orthogonalLoop=1;jettySize=auto;html=1;endArrow=none;endFill=0;fontSize=16;fontFamily=PingFang SC;" parent="P0ja4m1GKOgg7Rop0Mvm-1" source="P0ja4m1GKOgg7Rop0Mvm-198" target="_i9oU_zUnFVyXfJFAMEZ-20" edge="1">
          <mxGeometry relative="1" as="geometry">
            <mxPoint x="-30" y="350" as="sourcePoint" />
            <mxPoint x="-920" y="278.50000000000045" as="targetPoint" />
          </mxGeometry>
        </mxCell>
        <mxCell id="fyW6FbxkXhklxL_48_FK-10" value="用来支撑子应用单独运行的必备内容" style="shape=note;whiteSpace=wrap;html=1;size=14;verticalAlign=middle;align=left;spacingTop=-6;fontSize=16;fontFamily=PingFang SC;" parent="P0ja4m1GKOgg7Rop0Mvm-1" vertex="1">
          <mxGeometry x="50" width="100" height="70" as="geometry" />
        </mxCell>
        <mxCell id="fyW6FbxkXhklxL_48_FK-8" value="" style="endArrow=none;dashed=1;html=1;fontSize=16;fontFamily=PingFang SC;" parent="P0ja4m1GKOgg7Rop0Mvm-1" source="_i9oU_zUnFVyXfJFAMEZ-81" target="fyW6FbxkXhklxL_48_FK-10" edge="1">
          <mxGeometry width="50" height="50" relative="1" as="geometry">
            <mxPoint x="610" y="230.78932188134524" as="sourcePoint" />
            <mxPoint x="100" y="140" as="targetPoint" />
          </mxGeometry>
        </mxCell>
        <mxCell id="HXtS7eYUlpfFKkpnauk8-3" style="edgeStyle=orthogonalEdgeStyle;rounded=0;orthogonalLoop=1;jettySize=auto;html=1;entryX=-0.004;entryY=0.425;entryDx=0;entryDy=0;entryPerimeter=0;endArrow=none;endFill=0;fontSize=16;fontFamily=PingFang SC;" parent="P0ja4m1GKOgg7Rop0Mvm-1" source="HXtS7eYUlpfFKkpnauk8-2" target="P0ja4m1GKOgg7Rop0Mvm-210" edge="1">
          <mxGeometry relative="1" as="geometry" />
        </mxCell>
        <mxCell id="nSzVaqNJ8Q3Y4NfpalM6-12" style="edgeStyle=orthogonalEdgeStyle;rounded=0;orthogonalLoop=1;jettySize=auto;html=1;entryX=1;entryY=0.5;entryDx=0;entryDy=0;endArrow=none;endFill=0;exitX=0;exitY=0.5;exitDx=0;exitDy=0;exitPerimeter=0;" parent="P0ja4m1GKOgg7Rop0Mvm-1" source="P0ja4m1GKOgg7Rop0Mvm-274" target="nSzVaqNJ8Q3Y4NfpalM6-11" edge="1">
          <mxGeometry relative="1" as="geometry">
            <mxPoint x="369" y="350" as="sourcePoint" />
          </mxGeometry>
        </mxCell>
        <mxCell id="nSzVaqNJ8Q3Y4NfpalM6-14" style="edgeStyle=orthogonalEdgeStyle;rounded=0;orthogonalLoop=1;jettySize=auto;html=1;entryX=0;entryY=0.5;entryDx=0;entryDy=0;entryPerimeter=0;endArrow=none;endFill=0;" parent="P0ja4m1GKOgg7Rop0Mvm-1" source="P0ja4m1GKOgg7Rop0Mvm-215" target="nSzVaqNJ8Q3Y4NfpalM6-13" edge="1">
          <mxGeometry relative="1" as="geometry">
            <mxPoint x="129.99997999998004" y="209.5" as="sourcePoint" />
          </mxGeometry>
        </mxCell>
        <mxCell id="nSzVaqNJ8Q3Y4NfpalM6-11" value="visualization/components" style="ellipse;verticalAlign=top;labelPosition=center;verticalLabelPosition=bottom;align=center;fontFamily=PingFang SC;fontSize=16;" parent="P0ja4m1GKOgg7Rop0Mvm-1" vertex="1">
          <mxGeometry x="205" y="390" width="15" height="15" as="geometry" />
        </mxCell>
        <mxCell id="nSzVaqNJ8Q3Y4NfpalM6-13" value="portal/components" style="shape=providedRequiredInterface;html=1;verticalLabelPosition=bottom;fontSize=16;fontFamily=PingFang SC;" parent="P0ja4m1GKOgg7Rop0Mvm-1" vertex="1">
          <mxGeometry x="270" y="68.5" width="20" height="20" as="geometry" />
        </mxCell>
        <mxCell id="P0ja4m1GKOgg7Rop0Mvm-167" value="" style="edgeStyle=orthogonalEdgeStyle;rounded=0;orthogonalLoop=1;jettySize=auto;html=1;entryX=0;entryY=0.5;entryDx=0;entryDy=0;entryPerimeter=0;endArrow=none;endFill=0;fontSize=16;fontFamily=PingFang SC;exitX=1;exitY=0.5;exitDx=0;exitDy=0;exitPerimeter=0;" parent="P0ja4m1GKOgg7Rop0Mvm-1" source="nSzVaqNJ8Q3Y4NfpalM6-13" target="P0ja4m1GKOgg7Rop0Mvm-165" edge="1">
          <mxGeometry relative="1" as="geometry">
            <mxPoint x="564.304347826087" y="48.500769230769265" as="targetPoint" />
          </mxGeometry>
        </mxCell>
      </root>
    </mxGraphModel>
  </diagram>
  <diagram id="4GhQbVwpTHxFiXbuSkNo" name="预加载子应用">
    <mxGraphModel dx="2257" dy="722" grid="1" gridSize="10" guides="1" tooltips="1" connect="1" arrows="1" fold="1" page="1" pageScale="1" pageWidth="827" pageHeight="1169" math="0" shadow="0">
      <root>
        <mxCell id="0" />
        <mxCell id="1" parent="0" />
        <mxCell id="sGGpFPTDg0llB-h6uD6q-6" value="" style="edgeStyle=orthogonalEdgeStyle;rounded=0;orthogonalLoop=1;jettySize=auto;html=1;strokeWidth=1;strokeColor=default;fontFamily=微软雅黑;fontSize=16;" parent="1" source="sGGpFPTDg0llB-h6uD6q-4" target="sGGpFPTDg0llB-h6uD6q-5" edge="1">
          <mxGeometry relative="1" as="geometry" />
        </mxCell>
        <mxCell id="sGGpFPTDg0llB-h6uD6q-4" value="开始" style="strokeWidth=1;html=1;shape=mxgraph.flowchart.start_1;whiteSpace=wrap;strokeColor=default;fontFamily=微软雅黑;fontSize=16;" parent="1" vertex="1">
          <mxGeometry x="-668" y="60" width="100" height="60" as="geometry" />
        </mxCell>
        <mxCell id="sGGpFPTDg0llB-h6uD6q-8" value="否" style="edgeStyle=orthogonalEdgeStyle;rounded=0;orthogonalLoop=1;jettySize=auto;html=1;strokeWidth=1;strokeColor=default;fontFamily=微软雅黑;fontSize=16;" parent="1" source="Tc8aFTqo6S_IXOCYa-7T-2" target="Tc8aFTqo6S_IXOCYa-7T-4" edge="1">
          <mxGeometry relative="1" as="geometry">
            <mxPoint x="-413" y="250" as="sourcePoint" />
            <mxPoint x="-250" y="310" as="targetPoint" />
          </mxGeometry>
        </mxCell>
        <mxCell id="sGGpFPTDg0llB-h6uD6q-5" value="beforeEach" style="whiteSpace=wrap;html=1;fillColor=default;strokeWidth=1;strokeColor=default;fontFamily=微软雅黑;fontSize=16;shape=mxgraph.flowchart.on-page_reference;verticalAlign=top;labelPosition=center;verticalLabelPosition=bottom;align=center;" parent="1" vertex="1">
          <mxGeometry x="-633" y="190" width="30" height="30" as="geometry" />
        </mxCell>
        <mxCell id="Tc8aFTqo6S_IXOCYa-7T-22" style="edgeStyle=orthogonalEdgeStyle;rounded=0;orthogonalLoop=1;jettySize=auto;html=1;" edge="1" parent="1" source="sGGpFPTDg0llB-h6uD6q-7" target="Tc8aFTqo6S_IXOCYa-7T-23">
          <mxGeometry relative="1" as="geometry">
            <mxPoint x="-460" y="560" as="targetPoint" />
          </mxGeometry>
        </mxCell>
        <mxCell id="sGGpFPTDg0llB-h6uD6q-7" value="预加载 remote" style="whiteSpace=wrap;html=1;fillColor=rgb(251, 251, 251);strokeWidth=1;strokeColor=default;fontFamily=微软雅黑;fontSize=16;" parent="1" vertex="1">
          <mxGeometry x="-520" y="435" width="120" height="60" as="geometry" />
        </mxCell>
        <mxCell id="sGGpFPTDg0llB-h6uD6q-10" style="edgeStyle=orthogonalEdgeStyle;rounded=0;orthogonalLoop=1;jettySize=auto;html=1;endArrow=none;endFill=0;strokeWidth=1;strokeColor=default;fontFamily=微软雅黑;fontSize=16;" parent="1" source="sGGpFPTDg0llB-h6uD6q-9" target="sGGpFPTDg0llB-h6uD6q-7" edge="1">
          <mxGeometry relative="1" as="geometry" />
        </mxCell>
        <mxCell id="sGGpFPTDg0llB-h6uD6q-9" value="&lt;p style=&quot;line-height: 160%;&quot;&gt;./exports&lt;br style=&quot;font-size: 16px;&quot;&gt;./components&lt;/p&gt;" style="strokeWidth=1;html=1;shape=mxgraph.flowchart.annotation_2;align=left;labelPosition=right;pointerEvents=1;strokeColor=default;fontFamily=微软雅黑;fontSize=16;" parent="1" vertex="1">
          <mxGeometry x="-340" y="415" width="50" height="100" as="geometry" />
        </mxCell>
        <mxCell id="Tc8aFTqo6S_IXOCYa-7T-9" style="edgeStyle=orthogonalEdgeStyle;rounded=0;orthogonalLoop=1;jettySize=auto;html=1;fontFamily=微软雅黑;fontSize=16;" edge="1" parent="1" source="sGGpFPTDg0llB-h6uD6q-12" target="Tc8aFTqo6S_IXOCYa-7T-6">
          <mxGeometry relative="1" as="geometry" />
        </mxCell>
        <mxCell id="sGGpFPTDg0llB-h6uD6q-12" value="执行 bootstrap 接入子应用的路由" style="rounded=0;whiteSpace=wrap;html=1;fontFamily=微软雅黑;fontSize=16;" parent="1" vertex="1">
          <mxGeometry x="-320" y="300" width="120" height="60" as="geometry" />
        </mxCell>
        <mxCell id="sGGpFPTDg0llB-h6uD6q-14" style="edgeStyle=orthogonalEdgeStyle;rounded=0;orthogonalLoop=1;jettySize=auto;html=1;endArrow=none;endFill=0;fontFamily=微软雅黑;fontSize=16;" parent="1" source="sGGpFPTDg0llB-h6uD6q-13" target="sGGpFPTDg0llB-h6uD6q-12" edge="1">
          <mxGeometry relative="1" as="geometry" />
        </mxCell>
        <mxCell id="sGGpFPTDg0llB-h6uD6q-13" value="&lt;p style=&quot;line-height: 160%;&quot;&gt;routes&lt;br style=&quot;font-size: 16px;&quot;&gt;vuex&lt;br style=&quot;font-size: 16px;&quot;&gt;i18n&lt;/p&gt;" style="strokeWidth=1;html=1;shape=mxgraph.flowchart.annotation_2;align=left;labelPosition=right;pointerEvents=1;strokeColor=default;fontFamily=微软雅黑;fontSize=16;" parent="1" vertex="1">
          <mxGeometry x="-150" y="280" width="50" height="100" as="geometry" />
        </mxCell>
        <mxCell id="Tc8aFTqo6S_IXOCYa-7T-1" value="" style="edgeStyle=orthogonalEdgeStyle;rounded=0;orthogonalLoop=1;jettySize=auto;html=1;strokeWidth=1;strokeColor=default;fontFamily=微软雅黑;fontSize=16;" edge="1" parent="1" source="sGGpFPTDg0llB-h6uD6q-5" target="Tc8aFTqo6S_IXOCYa-7T-2">
          <mxGeometry relative="1" as="geometry">
            <mxPoint x="-573" y="250" as="sourcePoint" />
            <mxPoint x="-573" y="450" as="targetPoint" />
          </mxGeometry>
        </mxCell>
        <mxCell id="Tc8aFTqo6S_IXOCYa-7T-5" value="是" style="edgeStyle=orthogonalEdgeStyle;rounded=0;orthogonalLoop=1;jettySize=auto;html=1;fontFamily=微软雅黑;fontSize=16;" edge="1" parent="1" source="Tc8aFTqo6S_IXOCYa-7T-2" target="Tc8aFTqo6S_IXOCYa-7T-6">
          <mxGeometry relative="1" as="geometry">
            <mxPoint x="-573" y="480" as="sourcePoint" />
            <mxPoint x="-573" y="550" as="targetPoint" />
          </mxGeometry>
        </mxCell>
        <mxCell id="Tc8aFTqo6S_IXOCYa-7T-2" value="路由是否注册？" style="rhombus;whiteSpace=wrap;html=1;strokeWidth=1;fontFamily=微软雅黑;fontSize=16;" vertex="1" parent="1">
          <mxGeometry x="-500" y="165" width="80" height="80" as="geometry" />
        </mxCell>
        <mxCell id="Tc8aFTqo6S_IXOCYa-7T-7" style="edgeStyle=orthogonalEdgeStyle;rounded=0;orthogonalLoop=1;jettySize=auto;html=1;fontFamily=微软雅黑;fontSize=16;" edge="1" parent="1" source="Tc8aFTqo6S_IXOCYa-7T-4" target="sGGpFPTDg0llB-h6uD6q-12">
          <mxGeometry relative="1" as="geometry">
            <mxPoint x="-220" y="360" as="targetPoint" />
          </mxGeometry>
        </mxCell>
        <mxCell id="Tc8aFTqo6S_IXOCYa-7T-4" value="先加载子应用的 remote" style="whiteSpace=wrap;html=1;strokeWidth=1;fontFamily=微软雅黑;fontSize=16;" vertex="1" parent="1">
          <mxGeometry x="-320" y="175" width="120" height="60" as="geometry" />
        </mxCell>
        <mxCell id="Tc8aFTqo6S_IXOCYa-7T-17" style="edgeStyle=orthogonalEdgeStyle;rounded=0;orthogonalLoop=1;jettySize=auto;html=1;fontSize=16;fontFamily=微软雅黑;" edge="1" parent="1" source="Tc8aFTqo6S_IXOCYa-7T-6" target="Tc8aFTqo6S_IXOCYa-7T-16">
          <mxGeometry relative="1" as="geometry" />
        </mxCell>
        <mxCell id="Tc8aFTqo6S_IXOCYa-7T-6" value="进入页面" style="whiteSpace=wrap;html=1;fontFamily=微软雅黑;fontSize=16;" vertex="1" parent="1">
          <mxGeometry x="-520" y="300" width="120" height="60" as="geometry" />
        </mxCell>
        <mxCell id="Tc8aFTqo6S_IXOCYa-7T-10" value="cacheAppName" style="strokeWidth=2;html=1;shape=mxgraph.flowchart.database;whiteSpace=wrap;fontSize=16;fontFamily=微软雅黑;" vertex="1" parent="1">
          <mxGeometry x="-160" y="80" width="60" height="60" as="geometry" />
        </mxCell>
        <mxCell id="Tc8aFTqo6S_IXOCYa-7T-13" value="" style="endArrow=none;dashed=1;html=1;rounded=0;fontSize=16;fontFamily=微软雅黑;" edge="1" parent="1" source="Tc8aFTqo6S_IXOCYa-7T-10" target="Tc8aFTqo6S_IXOCYa-7T-4">
          <mxGeometry width="50" height="50" relative="1" as="geometry">
            <mxPoint x="-140" y="150" as="sourcePoint" />
            <mxPoint x="-140" y="170.71067811865476" as="targetPoint" />
          </mxGeometry>
        </mxCell>
        <mxCell id="Tc8aFTqo6S_IXOCYa-7T-15" style="edgeStyle=orthogonalEdgeStyle;rounded=0;orthogonalLoop=1;jettySize=auto;html=1;fontSize=16;fontFamily=微软雅黑;" edge="1" parent="1" source="Tc8aFTqo6S_IXOCYa-7T-18" target="sGGpFPTDg0llB-h6uD6q-7">
          <mxGeometry relative="1" as="geometry">
            <mxPoint x="-513" y="700" as="sourcePoint" />
          </mxGeometry>
        </mxCell>
        <mxCell id="Tc8aFTqo6S_IXOCYa-7T-16" value="next" style="whiteSpace=wrap;html=1;fillColor=default;strokeWidth=1;strokeColor=default;fontFamily=微软雅黑;fontSize=16;shape=mxgraph.flowchart.on-page_reference;verticalAlign=top;labelPosition=center;verticalLabelPosition=bottom;align=center;" vertex="1" parent="1">
          <mxGeometry x="-633" y="315" width="30" height="30" as="geometry" />
        </mxCell>
        <mxCell id="Tc8aFTqo6S_IXOCYa-7T-19" value="" style="edgeStyle=orthogonalEdgeStyle;rounded=0;orthogonalLoop=1;jettySize=auto;html=1;fontFamily=微软雅黑;fontSize=16;exitX=0.5;exitY=1;exitDx=0;exitDy=0;exitPerimeter=0;" edge="1" parent="1" source="Tc8aFTqo6S_IXOCYa-7T-16" target="Tc8aFTqo6S_IXOCYa-7T-18">
          <mxGeometry relative="1" as="geometry">
            <mxPoint x="-618" y="335" as="sourcePoint" />
            <mxPoint x="-573" y="670" as="targetPoint" />
          </mxGeometry>
        </mxCell>
        <mxCell id="Tc8aFTqo6S_IXOCYa-7T-18" value="afterEach" style="whiteSpace=wrap;html=1;fillColor=default;strokeWidth=1;strokeColor=default;fontFamily=微软雅黑;fontSize=16;shape=mxgraph.flowchart.on-page_reference;verticalAlign=top;labelPosition=center;verticalLabelPosition=bottom;align=center;" vertex="1" parent="1">
          <mxGeometry x="-633" y="450" width="30" height="30" as="geometry" />
        </mxCell>
        <mxCell id="Tc8aFTqo6S_IXOCYa-7T-23" value="结束" style="strokeWidth=1;html=1;shape=mxgraph.flowchart.start_1;whiteSpace=wrap;strokeColor=default;fontFamily=微软雅黑;fontSize=16;" vertex="1" parent="1">
          <mxGeometry x="-510" y="555" width="100" height="60" as="geometry" />
        </mxCell>
      </root>
    </mxGraphModel>
  </diagram>
</mxfile>
